<svg viewBox="0 0 240 240" xmlns="http://www.w3.org/2000/svg">
  <!-- Abler 顔のベクター版（実験）。フラット調の描き起こし -->
  <!-- 耳（シルエットがAになるよう外側に開く） -->
  <path d="M58 92 L28 16 Q64 24 92 56 Z" fill="#8a5a3b"/>
  <path d="M63 80 L46 34 Q67 42 80 60 Z" fill="#f7ead3"/>
  <path d="M182 92 L212 16 Q176 24 148 56 Z" fill="#8a5a3b"/>
  <path d="M177 80 L194 34 Q173 42 160 60 Z" fill="#f7ead3"/>
  <!-- 頭 -->
  <ellipse cx="120" cy="134" rx="94" ry="84" fill="#a9744b"/>
  <ellipse cx="120" cy="148" rx="80" ry="68" fill="#f7ead3"/>
  <!-- ひたいの模様 -->
  <path d="M64 86 Q120 52 176 86 Q152 104 120 104 Q88 104 64 86 Z" fill="#8a5a3b"/>
  <path d="M112 70 Q120 58 128 70 L124 84 L116 84 Z" fill="#f7ead3"/>
  <!-- メガネ -->
  <line x1="50" y1="128" x2="34" y2="120" stroke="#23304f" stroke-width="6" stroke-linecap="round"/>
  <line x1="190" y1="128" x2="206" y2="120" stroke="#23304f" stroke-width="6" stroke-linecap="round"/>
  <circle cx="86" cy="134" r="32" fill="#ffffff" stroke="#23304f" stroke-width="6"/>
  <circle cx="154" cy="134" r="32" fill="#ffffff" stroke="#23304f" stroke-width="6"/>
  <line x1="118" y1="130" x2="122" y2="130" stroke="#23304f" stroke-width="6" stroke-linecap="round"/>
  <!-- 目 -->
  <circle cx="87" cy="137" r="17" fill="#33261c"/>
  <circle cx="153" cy="137" r="17" fill="#33261c"/>
  <circle cx="92" cy="131" r="6" fill="#ffffff"/>
  <circle cx="158" cy="131" r="6" fill="#ffffff"/>
  <circle cx="82" cy="144" r="3" fill="#ffffff" opacity="0.7"/>
  <circle cx="148" cy="144" r="3" fill="#ffffff" opacity="0.7"/>
  <!-- ほっぺ -->
  <ellipse cx="56" cy="160" rx="11" ry="7" fill="#f3b8ae"/>
  <ellipse cx="184" cy="160" rx="11" ry="7" fill="#f3b8ae"/>
  <!-- 鼻と口 -->
  <path d="M114 158 L126 158 L120 166 Z" fill="#5d4030"/>
  <path d="M104 172 Q120 192 136 172 Q120 200 104 172 Z" fill="#d9534b"/>
  <!-- バンダナ -->
  <path d="M58 192 Q120 214 182 192 L132 230 Q120 236 108 230 Z" fill="#3f5fae"/>
  <text x="120" y="222" text-anchor="middle" font-family="-apple-system, 'Helvetica Neue', sans-serif" font-size="26" font-weight="800" fill="#f3e7cf">A</text>
</svg>
